  0
SECTION
  2
HEADER
  9
$ACADVER
  1
AC1015
  9
$ACADMAINTVER
 70
6
  9
$DWGCODEPAGE
  3
ANSI_1252
  9
$INSBASE
 10
0.0
 20
0.0
 30
0.0
  9
$EXTMIN
 10
-100
 20
-100
 30
-100
  9
$EXTMAX
 10
100
 20
100
 30
100
  9
$LIMMIN
 10
0.0
 20
0.0
  9
$LIMMAX
 10
420.0
 20
297.0
  9
$ORTHOMODE
 70
0
  9
$REGENMODE
 70
1
  9
$FILLMODE
 70
1
  9
$QTEXTMODE
 70
0
  9
$MIRRTEXT
 70
1
  9
$LTSCALE
 40
1.0
  9
$ATTMODE
 70
1
  9
$TEXTSIZE
 40
2.5
  9
$TRACEWID
 40
1.0
  9
$TEXTSTYLE
  7
Standard
  9
$CLAYER
  8
0
  9
$CELTYPE
  6
ByLayer
  9
$CECOLOR
 62
256
  9
$CELTSCALE
 40
1.0
  9
$DISPSILH
 70
0
  9
$DIMSCALE
 40
1.0
  9
$DIMASZ
 40
2.5
  9
$DIMEXO
 40
0.625
  9
$DIMDLI
 40
3.75
  9
$DIMRND
 40
0.0
  9
$DIMDLE
 40
0.0
  9
$DIMEXE
 40
1.25
  9
$DIMTP
 40
0.0
  9
$DIMTM
 40
0.0
  9
$DIMTXT
 40
2.5
  9
$DIMCEN
 40
2.5
  9
$DIMTSZ
 40
0.0
  9
$DIMTOL
 70
0
  9
$DIMLIM
 70
0
  9
$DIMTIH
 70
0
  9
$DIMTOH
 70
0
  9
$DIMSE1
 70
0
  9
$DIMSE2
 70
0
  9
$DIMTAD
 70
1
  9
$DIMZIN
 70
8
  9
$DIMBLK
  1

  9
$DIMASO
 70
1
  9
$DIMSHO
 70
1
  9
$DIMPOST
  1

  9
$DIMAPOST
  1

  9
$DIMALT
 70
0
  9
$DIMALTD
 70
3
  9
$DIMALTF
 40
0.03937007874
  9
$DIMLFAC
 40
1.0
  9
$DIMTOFL
 70
1
  9
$DIMTVP
 40
0.0
  9
$DIMTIX
 70
0
  9
$DIMSOXD
 70
0
  9
$DIMSAH
 70
0
  9
$DIMBLK1
  1

  9
$DIMBLK2
  1

  9
$DIMSTYLE
  2
ISO-25
  9
$DIMCLRD
 70
0
  9
$DIMCLRE
 70
0
  9
$DIMCLRT
 70
0
  9
$DIMTFAC
 40
1.0
  9
$DIMGAP
 40
0.625
  9
$DIMJUST
 70
0
  9
$DIMSD1
 70
0
  9
$DIMSD2
 70
0
  9
$DIMTOLJ
 70
0
  9
$DIMTZIN
 70
8
  9
$DIMALTZ
 70
0
  9
$DIMALTTZ
 70
0
  9
$DIMUPT
 70
0
  9
$DIMDEC
 70
2
  9
$DIMTDEC
 70
2
  9
$DIMALTU
 70
2
  9
$DIMALTTD
 70
3
  9
$DIMTXSTY
  7
Standard
  9
$DIMAUNIT
 70
0
  9
$DIMADEC
 70
0
  9
$DIMALTRND
 40
0.0
  9
$DIMAZIN
 70
0
  9
$DIMDSEP
 70
44
  9
$DIMATFIT
 70
3
  9
$DIMFRAC
 70
0
  9
$DIMLDRBLK
  1

  9
$DIMLUNIT
 70
2
  9
$DIMLWD
 70
-2
  9
$DIMLWE
 70
-2
  9
$DIMTMOVE
 70
0
  9
$LUNITS
 70
2
  9
$LUPREC
 70
4
  9
$SKETCHINC
 40
1.0
  9
$FILLETRAD
 40
10.0
  9
$AUNITS
 70
0
  9
$AUPREC
 70
2
  9
$MENU
  1
.
  9
$ELEVATION
 40
0.0
  9
$PELEVATION
 40
0.0
  9
$THICKNESS
 40
0.0
  9
$LIMCHECK
 70
0
  9
$CHAMFERA
 40
0.0
  9
$CHAMFERB
 40
0.0
  9
$CHAMFERC
 40
0.0
  9
$CHAMFERD
 40
0.0
  9
$SKPOLY
 70
0
  9
$TDCREATE
 40
2459449.625636574
  9
$TDUCREATE
 40
2458532.153996898
  9
$TDUPDATE
 40
2459449.625636574
  9
$TDUUPDATE
 40
2458532.1544311
  9
$TDINDWG
 40
0.0
  9
$TDUSRTIMER
 40
0.0
  9
$USRTIMER
 70
1
  9
$ANGBASE
 50
0.0
  9
$ANGDIR
 70
0
  9
$PDMODE
 70
0
  9
$PDSIZE
 40
0.0
  9
$PLINEWID
 40
0.0
  9
$SPLFRAME
 70
0
  9
$SPLINETYPE
 70
6
  9
$SPLINESEGS
 70
8
  9
$HANDSEED
  5
33
  9
$SURFTAB1
 70
6
  9
$SURFTAB2
 70
6
  9
$SURFTYPE
 70
6
  9
$SURFU
 70
6
  9
$SURFV
 70
6
  9
$UCSBASE
  2

  9
$UCSNAME
  2

  9
$UCSORG
 10
0.0
 20
0.0
 30
0.0
  9
$UCSXDIR
 10
1.0
 20
0.0
 30
0.0
  9
$UCSYDIR
 10
0.0
 20
1.0
 30
0.0
  9
$UCSORTHOREF
  2

  9
$UCSORTHOVIEW
 70
0
  9
$UCSORGTOP
 10
0.0
 20
0.0
 30
0.0
  9
$UCSORGBOTTOM
 10
0.0
 20
0.0
 30
0.0
  9
$UCSORGLEFT
 10
0.0
 20
0.0
 30
0.0
  9
$UCSORGRIGHT
 10
0.0
 20
0.0
 30
0.0
  9
$UCSORGFRONT
 10
0.0
 20
0.0
 30
0.0
  9
$UCSORGBACK
 10
0.0
 20
0.0
 30
0.0
  9
$PUCSBASE
  2

  9
$PUCSNAME
  2

  9
$PUCSORG
 10
0.0
 20
0.0
 30
0.0
  9
$PUCSXDIR
 10
1.0
 20
0.0
 30
0.0
  9
$PUCSYDIR
 10
0.0
 20
1.0
 30
0.0
  9
$PUCSORTHOREF
  2

  9
$PUCSORTHOVIEW
 70
0
  9
$PUCSORGTOP
 10
0.0
 20
0.0
 30
0.0
  9
$PUCSORGBOTTOM
 10
0.0
 20
0.0
 30
0.0
  9
$PUCSORGLEFT
 10
0.0
 20
0.0
 30
0.0
  9
$PUCSORGRIGHT
 10
0.0
 20
0.0
 30
0.0
  9
$PUCSORGFRONT
 10
0.0
 20
0.0
 30
0.0
  9
$PUCSORGBACK
 10
0.0
 20
0.0
 30
0.0
  9
$USERI1
 70
0
  9
$USERI2
 70
0
  9
$USERI3
 70
0
  9
$USERI4
 70
0
  9
$USERI5
 70
0
  9
$USERR1
 40
0.0
  9
$USERR2
 40
0.0
  9
$USERR3
 40
0.0
  9
$USERR4
 40
0.0
  9
$USERR5
 40
0.0
  9
$WORLDVIEW
 70
1
  9
$SHADEDGE
 70
3
  9
$SHADEDIF
 70
70
  9
$TILEMODE
 70
1
  9
$MAXACTVP
 70
64
  9
$PINSBASE
 10
0.0
 20
0.0
 30
0.0
  9
$PLIMCHECK
 70
0
  9
$PEXTMIN
 10
1e+20
 20
1e+20
 30
1e+20
  9
$PEXTMAX
 10
-1e+20
 20
-1e+20
 30
-1e+20
  9
$PLIMMIN
 10
0.0
 20
0.0
  9
$PLIMMAX
 10
420.0
 20
297.0
  9
$UNITMODE
 70
0
  9
$VISRETAIN
 70
1
  9
$PLINEGEN
 70
0
  9
$PSLTSCALE
 70
1
  9
$TREEDEPTH
 70
3020
  9
$CMLSTYLE
  2
Standard
  9
$CMLJUST
 70
0
  9
$CMLSCALE
 40
20.0
  9
$PROXYGRAPHICS
 70
1
  9
$MEASUREMENT
 70
1
  9
$CELWEIGHT
370
-1
  9
$ENDCAPS
280
0
  9
$JOINSTYLE
280
0
  9
$LWDISPLAY
290
0
  9
$INSUNITS
 70
6
  9
$HYPERLINKBASE
  1

  9
$STYLESHEET
  1

  9
$XEDIT
290
1
  9
$CEPSNTYPE
380
0
  9
$PSTYLEMODE
290
1
  9
$FINGERPRINTGUID
  2
9AC97AFE-0340-11EC-81E8-A01D48BF3D92
  9
$VERSIONGUID
  2
9ACE33F5-0340-11EC-8C19-A01D48BF3D92
  9
$EXTNAMES
290
1
  9
$PSVPSCALE
 40
0.0
  9
$OLESTARTUP
290
0
  0
ENDSEC
  0
SECTION
  2
CLASSES
  0
CLASS
  1
ACDBDICTIONARYWDFLT
  2
AcDbDictionaryWithDefault
  3
ObjectDBX Classes
 90
0
280
0
281
0
  0
CLASS
  1
SUN
  2
AcDbSun
  3
SCENEOE
 90
1153
280
0
281
0
  0
CLASS
  1
VISUALSTYLE
  2
AcDbVisualStyle
  3
ObjectDBX Classes
 90
4095
280
0
281
0
  0
CLASS
  1
MATERIAL
  2
AcDbMaterial
  3
ObjectDBX Classes
 90
1153
280
0
281
0
  0
CLASS
  1
SCALE
  2
AcDbScale
  3
ObjectDBX Classes
 90
1153
280
0
281
0
  0
CLASS
  1
TABLESTYLE
  2
AcDbTableStyle
  3
ObjectDBX Classes
 90
4095
280
0
281
0
  0
CLASS
  1
MLEADERSTYLE
  2
AcDbMLeaderStyle
  3
ACDB_MLEADERSTYLE_CLASS
 90
4095
280
0
281
0
  0
CLASS
  1
DICTIONARYVAR
  2
AcDbDictionaryVar
  3
ObjectDBX Classes
 90
0
280
0
281
0
  0
CLASS
  1
CELLSTYLEMAP
  2
AcDbCellStyleMap
  3
ObjectDBX Classes
 90
1152
280
0
281
0
  0
CLASS
  1
MENTALRAYRENDERSETTINGS
  2
AcDbMentalRayRenderSettings
  3
SCENEOE
 90
1024
280
0
281
0
  0
CLASS
  1
ACDBDETAILVIEWSTYLE
  2
AcDbDetailViewStyle
  3
ObjectDBX Classes
 90
1025
280
0
281
0
  0
CLASS
  1
ACDBSECTIONVIEWSTYLE
  2
AcDbSectionViewStyle
  3
ObjectDBX Classes
 90
1025
280
0
281
0
  0
CLASS
  1
RASTERVARIABLES
  2
AcDbRasterVariables
  3
ISM
 90
0
280
0
281
0
  0
CLASS
  1
ACDBPLACEHOLDER
  2
AcDbPlaceHolder
  3
ObjectDBX Classes
 90
0
280
0
281
0
  0
CLASS
  1
LAYOUT
  2
AcDbLayout
  3
ObjectDBX Classes
 90
0
280
0
281
0
  0
ENDSEC
  0
SECTION
  2
TABLES
  0
TABLE
  2
VPORT
  5
8
330
0
100
AcDbSymbolTable
 70
1
  0
VPORT
  5
23
330
8
100
AcDbSymbolTableRecord
100
AcDbViewportTableRecord
  2
*Active
 70
0
 10
0.0
 20
0.0
 11
1.0
 21
1.0
 12
70.0
 22
50.0
 13
0.0
 23
0.0
 14
0.5
 24
0.5
 15
0.5
 25
0.5
 16
0.0
 26
0.0
 36
1.0
 17
0.0
 27
0.0
 37
0.0
 40
1.0
 41
1.34
 42
50.0
 43
0.0
 44
0.0
 50
0.0
 51
0.0
 71
0
 72
1000
 73
1
 74
3
 75
0
 76
0
 77
0
 78
0
281
0
 65
0
146
0.0
  0
ENDTAB
  0
TABLE
  2
LTYPE
  5
2
330
0
100
AcDbSymbolTable
 70
3
  0
LTYPE
  5
24
330
2
100
AcDbSymbolTableRecord
100
AcDbLinetypeTableRecord
  2
ByBlock
 70
0
  3

 72
65
 73
0
 40
0.0
  0
LTYPE
  5
25
330
2
100
AcDbSymbolTableRecord
100
AcDbLinetypeTableRecord
  2
ByLayer
 70
0
  3

 72
65
 73
0
 40
0.0
  0
LTYPE
  5
26
330
2
100
AcDbSymbolTableRecord
100
AcDbLinetypeTableRecord
  2
Continuous
 70
0
  3

 72
65
 73
0
 40
0.0
  0
ENDTAB
  0
TABLE
  2
LAYER
  5
1
330
0
100
AcDbSymbolTable
 70
2
  0
LAYER
  5
27
330
1
100
AcDbSymbolTableRecord
100
AcDbLayerTableRecord
  2
0
 70
0
 62
7
  6
Continuous
370
-3
390
13
  0
LAYER
  5
28
330
1
100
AcDbSymbolTableRecord
100
AcDbLayerTableRecord
  2
Defpoints
 70
0
 62
7
  6
Continuous
290
0
370
-3
390
13
  0
ENDTAB
  0
TABLE
  2
STYLE
  5
5
330
0
100
AcDbSymbolTable
 70
1
  0
STYLE
  5
29
330
5
100
AcDbSymbolTableRecord
100
AcDbTextStyleTableRecord
  2
Standard
 70
0
 40
0.0
 41
1.0
 50
0.0
 71
0
 42
2.5
  3
txt
  4

  0
ENDTAB
  0
TABLE
  2
VIEW
  5
7
330
0
100
AcDbSymbolTable
 70
0
  0
ENDTAB
  0
TABLE
  2
UCS
  5
6
330
0
100
AcDbSymbolTable
 70
0
  0
ENDTAB
  0
TABLE
  2
APPID
  5
3
330
0
100
AcDbSymbolTable
 70
2
  0
APPID
  5
2A
330
3
100
AcDbSymbolTableRecord
100
AcDbRegAppTableRecord
  2
ACAD
 70
0
  0
APPID
  5
32
330
3
100
AcDbSymbolTableRecord
100
AcDbRegAppTableRecord
  2
HATCHBACKGROUNDCOLOR
 70
0
  0
ENDTAB
  0
TABLE
  2
DIMSTYLE
  5
4
330
0
100
AcDbSymbolTable
 70
1
100
AcDbDimStyleTable
  0
DIMSTYLE
105
2B
330
4
100
AcDbSymbolTableRecord
100
AcDbDimStyleTableRecord
  2
Standard
 70
0
  3

  4

 40
1.0
 41
2.5
 42
0.625
 43
3.75
 44
1.25
 45
0.0
 46
0.0
 47
0.0
 48
0.0
140
2.5
141
2.5
142
0.0
143
0.03937007874
144
1.0
145
0.0
146
1.0
147
0.625
148
0.0
 71
0
 72
0
 73
0
 74
0
 75
0
 76
0
 77
1
 78
8
 79
0
170
0
171
3
172
1
173
0
174
0
175
0
176
0
177
0
178
0
179
0
271
0
272
2
273
2
274
3
275
0
276
0
277
2
278
44
279
0
280
0
281
0
282
0
283
0
284
8
285
0
286
0
288
0
289
3
371
-2
372
-2
  0
ENDTAB
  0
TABLE
  2
BLOCK_RECORD
  5
9
330
0
100
AcDbSymbolTable
 70
2
  0
BLOCK_RECORD
  5
17
330
9
100
AcDbSymbolTableRecord
100
AcDbBlockTableRecord
  2
*Model_Space
340
1A
  0
BLOCK_RECORD
  5
1B
330
9
100
AcDbSymbolTableRecord
100
AcDbBlockTableRecord
  2
*Paper_Space
340
1E
  0
ENDTAB
  0
ENDSEC
  0
SECTION
  2
BLOCKS
  0
BLOCK
  5
18
330
17
100
AcDbEntity
  8
0
100
AcDbBlockBegin
  2
*Model_Space
 70
0
 10
0.0
 20
0.0
 30
0.0
  3
*Model_Space
  1

  0
ENDBLK
  5
19
330
17
100
AcDbEntity
  8
0
100
AcDbBlockEnd
  0
BLOCK
  5
1C
330
1B
100
AcDbEntity
  8
0
100
AcDbBlockBegin
  2
*Paper_Space
 70
0
 10
0.0
 20
0.0
 30
0.0
  3
*Paper_Space
  1

  0
ENDBLK
  5
1D
330
1B
100
AcDbEntity
  8
0
100
AcDbBlockEnd
  0
ENDSEC
  0
SECTION
  2
ENTITIES
  0
LWPOLYLINE
  5
2D
330
17
100
AcDbEntity
  8
0
100
AcDbPolyline
 90
25
 70
0
 10
3.0
 20
0.049999999999999996
 10
3.0
 20
5.503333536784299
 10
3.0
 20
81.85000305175858
 10
3.0
 20
158.19667256673284
 10
3.0
 20
163.6500061035156
 10
3.014634146341463
 20
163.68537195717414
 10
3.05
 20
163.70000610351562
 10
6.503333282471007
 20
163.70000610351562
 10
54.84999923706104
 20
163.70000610351562
 10
103.19666519165108
 20
163.70000610351562
 10
106.64999847412109
 20
163.70000610351562
 10
106.68536432777962
 20
163.68537195717414
 10
106.69999847412109
 20
163.6500061035156
 10
106.69999847412109
 20
158.1966725667313
 10
106.69999847412109
 20
81.85000305175704
 10
106.69999847412109
 20
5.5033335367827645
 10
106.69999847412109
 20
0.049999999999999996
 10
106.68536432777962
 20
0.014634146341463414
 10
106.64999847412109
 20
0.0
 10
103.19666519165008
 20
0.0
 10
54.84999923706005
 20
0.0
 10
6.503333282470012
 20
0.0
 10
3.05
 20
0.0
 10
3.014634146341463
 20
0.014634146341463414
 10
3.0
 20
0.049999999999999996
  0
LWPOLYLINE
  5
2E
330
17
100
AcDbEntity
  8
0
100
AcDbPolyline
 90
79
 70
0
 10
97.49527549743652
 20
11.142137400309238
 10
97.50685195922851
 20
11.143150329589844
 10
97.51842854817708
 20
11.142137400309238
 10
97.85414962768554
 20
11.112762451171875
 10
98.17966728210449
 20
11.025544738769526
 10
98.18152792294757
 20
11.025046207166914
 10
98.46095410788931
 20
10.894743806172185
 10
98.47148610556997
 20
10.889832510599275
 10
98.74754277671255
 20
10.696539002705391
 10
98.75706197226918
 20
10.689873709329744
 10
98.76527908449249
 20
10.681656597106437
 10
98.8803186556188
 20
10.566617025980134
 10
98.9953582267451
 20
10.451577454853831
 10
99.0035753389684
 20
10.443360342630525
 10
99.1035566469518
 20
10.300572409280916
 10
99.2035379549352
 20
10.157784475931306
 10
99.33874753117965
 20
9.867824121189967
 10
99.33924649556478
 20
9.865961964925122
 10
99.36191177368164
 20
9.781374184918874
 10
99.42346026102702
 20
9.551672617594393
 10
99.42646789550781
 20
9.540447998046874
 10
99.42748069763184
 20
9.528871409098302
 10
99.45685195922852
 20
9.193150329589843
 10
99.42748069763184
 20
8.857429250081383
 10
99.42646789550781
 20
8.845852661132811
 10
99.3813533782959
 20
8.677479553222655
 10
99.33874779305424
 20
8.518470098067189
 10
99.2035379549352
 20
8.228516183248379
 10
99.19687253440297
 20
8.218996987691744
 10
99.01154050849117
 20
7.954315743795255
 10
99.01024075950063
 20
7.952459512105796
 10
99.0035753389684
 20
7.942940316549161
 10
98.9953582267451
 20
7.934723204325855
 10
98.8803186556188
 20
7.819683633199552
 10
98.76527908449249
 20
7.704644062073249
 10
98.75706197226918
 20
7.6964269498499425
 10
98.74754277671255
 20
7.689761402161145
 10
98.47148610556997
 20
7.49646051918588
 10
98.46095410788931
 20
7.49154947792612
 10
98.18153001884865
 20
7.361254801468818
 10
98.17966728210449
 20
7.3607556660970115
 10
97.85414962768554
 20
7.273530578613281
 10
97.84257303873697
 20
7.27251790364584
 10
97.50685195922851
 20
7.243150329589843
 10
97.17113456726074
 20
7.27251790364584
 10
97.15955810546875
 20
7.273530578613281
 10
96.8340367635091
 20
7.3607556660970115
 10
96.83217375633079
 20
7.361254868278759
 10
96.5527498105677
 20
7.49154947792612
 10
96.54221781288705
 20
7.49646051918588
 10
96.26616482928515
 20
7.689761402161145
 10
96.25664576088509
 20
7.6964269498499425
 10
96.2484285215052
 20
7.704644062073249
 10
96.01012857948861
 20
7.942940316549161
 10
95.81683507159472
 20
8.218996987691744
 10
95.81016977821908
 20
8.228516183248379
 10
95.67495994010005
 20
8.518470098067185
 10
95.67446123758951
 20
8.520331319173183
 10
95.65781173706054
 20
8.582469369682437
 10
95.59024747212727
 20
8.834627787272142
 10
95.58723983764648
 20
8.845852661132811
 10
95.58622690836587
 20
8.857429250081383
 10
95.55685195922851
 20
9.193150329589843
 10
95.58622690836587
 20
9.528871409098302
 10
95.58723983764648
 20
9.540447998046874
 10
95.63235435485839
 20
9.708817291259765
 10
95.67496020197463
 20
9.867824121189962
 10
95.81016977821908
 20
10.157784475931306
 10
95.81683507159472
 20
10.167303671487941
 10
96.01012857948861
 20
10.443360342630525
 10
96.2484285215052
 20
10.681656597106437
 10
96.25664576088509
 20
10.689873709329744
 10
96.26616482928516
 20
10.696539002705391
 10
96.54221781288705
 20
10.889832510599275
 10
96.5527498105677
 20
10.894743806172185
 10
96.83217585224571
 20
11.025046140359972
 10
96.8340367635091
 20
11.025544738769526
 10
97.15955810546875
 20
11.112762451171875
 10
97.49527549743652
 20
11.142137400309238
  0
LWPOLYLINE
  5
2F
330
17
100
AcDbEntity
  8
0
100
AcDbPolyline
 90
79
 70
0
 10
11.5203311920166
 20
156.3392504374186
 10
11.845848846435546
 20
156.42647552490234
 10
11.857425435384117
 20
156.42748819986977
 10
12.193146514892577
 20
156.45685577392578
 10
12.528863906860353
 20
156.42748819986977
 10
12.540440368652343
 20
156.42647552490234
 10
12.865961710611979
 20
156.3392504374186
 10
12.867824717790299
 20
156.33875123523686
 10
13.147248663553382
 20
156.2084566255895
 10
13.15778066123404
 20
156.20354558432973
 10
13.433833644835934
 20
156.01024470135445
 10
13.443352713235994
 20
156.00357915366567
 10
13.451569952615875
 20
155.99536204144235
 10
13.689869894632478
 20
155.75706578696645
 10
13.883163402526362
 20
155.48100911582387
 10
13.88982869590201
 20
155.47148992026723
 10
14.02503853402104
 20
155.18153600544844
 10
14.025537236531576
 20
155.17967478434244
 10
14.042186737060547
 20
155.11753673383316
 10
14.109751001993814
 20
154.86537831624346
 10
14.11275863647461
 20
154.8541534423828
 10
14.113771565755208
 20
154.84257685343422
 10
14.143146514892578
 20
154.50685577392576
 10
14.113771565755208
 20
154.1711346944173
 10
14.11275863647461
 20
154.15955810546873
 10
14.067644119262695
 20
153.99118881225584
 10
14.025038272146455
 20
153.83218198232564
 10
13.88982869590201
 20
153.5422216275843
 10
13.883163402526355
 20
153.53270243202766
 10
13.689869894632478
 20
153.25664576088508
 10
13.451569952615875
 20
153.01834950640918
 10
13.443352713235994
 20
153.01013239418586
 10
13.433833644835927
 20
153.0034671008102
 10
13.15778066123404
 20
152.81017359291633
 10
13.147248663553375
 20
152.80526229734343
 10
12.867822621875368
 20
152.67495996315563
 10
12.865961710611979
 20
152.6744613647461
 10
12.540440368652343
 20
152.58724365234374
 10
12.204722976684566
 20
152.55786870320637
 10
12.193146514892577
 20
152.55685577392578
 10
12.181569925944006
 20
152.55786870320637
 10
11.845848846435546
 20
152.58724365234374
 10
11.5203311920166
 20
152.6744613647461
 10
11.518470551173523
 20
152.6749598963487
 10
11.239044366231779
 20
152.80526229734343
 10
11.228512368551113
 20
152.81017359291633
 10
10.952455697408537
 20
153.0034671008102
 10
10.942936501851895
 20
153.01013239418586
 10
10.934719389628588
 20
153.01834950640918
 10
10.819679818502285
 20
153.13338907753547
 10
10.704640247375982
 20
153.2484286486618
 10
10.696423135152676
 20
153.25664576088508
 10
10.596441827169278
 20
153.3994336942347
 10
10.496460519185879
 20
153.5422216275843
 10
10.361250942941437
 20
153.83218198232564
 10
10.360751978556314
 20
153.83404413859049
 10
10.338086700439453
 20
153.91863191859673
 10
10.276538213094076
 20
154.14833348592123
 10
10.273530578613281
 20
154.15955810546873
 10
10.272517776489257
 20
154.1711346944173
 10
10.243146514892578
 20
154.50685577392576
 10
10.272517776489257
 20
154.84257685343422
 10
10.273530578613281
 20
154.8541534423828
 10
10.318645095825195
 20
155.02252655029295
 10
10.36125068106685
 20
155.1815360054484
 10
10.496460519185879
 20
155.47148992026723
 10
10.503125939718108
 20
155.48100911582387
 10
10.688457965629915
 20
155.74569035972036
 10
10.689757714620454
 20
155.74754659140982
 10
10.696423135152676
 20
155.75706578696645
 10
10.704640247375982
 20
155.76528289918974
 10
10.819679818502285
 20
155.88032247031606
 10
10.934719389628588
 20
155.99536204144235
 10
10.942936501851895
 20
156.00357915366567
 10
10.952455697408537
 20
156.01024470135445
 10
11.228512368551113
 20
156.20354558432973
 10
11.239044366231779
 20
156.2084566255895
 10
11.51846845527244
 20
156.3387513020468
 10
11.5203311920166
 20
156.3392504374186
  0
LWPOLYLINE
  5
30
330
17
100
AcDbEntity
  8
0
100
AcDbPolyline
 90
79
 70
0
 10
99.33924649556478
 20
155.17967478434244
 10
99.35589599609375
 20
155.11753673383316
 10
99.42346026102702
 20
154.86537831624346
 10
99.42646789550781
 20
154.8541534423828
 10
99.42748069763184
 20
154.84257685343422
 10
99.45685195922852
 20
154.50685577392576
 10
99.42748069763184
 20
154.1711346944173
 10
99.42646789550781
 20
154.15955810546873
 10
99.3813533782959
 20
153.99118881225584
 10
99.33874753117965
 20
153.83218198232564
 10
99.2035379549352
 20
153.5422216275843
 10
99.19687253440297
 20
153.53270243202766
 10
99.01154050849117
 20
153.26802118813117
 10
99.01024075950063
 20
153.2661649564417
 10
99.0035753389684
 20
153.25664576088508
 10
98.9953582267451
 20
153.2484286486618
 10
98.8803186556188
 20
153.13338907753547
 10
98.76527908449249
 20
153.01834950640918
 10
98.75706197226918
 20
153.01013239418586
 10
98.74754277671255
 20
153.0034671008102
 10
98.47148610556997
 20
152.81017359291633
 10
98.46095410788931
 20
152.80526229734343
 10
98.18152792294757
 20
152.6749598963487
 10
98.17966728210449
 20
152.6744613647461
 10
97.85414962768554
 20
152.58724365234374
 10
97.51842854817707
 20
152.55786870320637
 10
97.50685195922851
 20
152.55685577392578
 10
97.49527549743651
 20
152.55786870320637
 10
97.15955810546875
 20
152.58724365234374
 10
96.8340367635091
 20
152.6744613647461
 10
96.83217585224571
 20
152.67495996315563
 10
96.5527498105677
 20
152.80526229734343
 10
96.54221781288705
 20
152.81017359291633
 10
96.26616482928515
 20
153.0034671008102
 10
96.25664576088509
 20
153.01013239418586
 10
96.2484285215052
 20
153.01834950640918
 10
96.01012857948861
 20
153.25664576088508
 10
95.81683507159472
 20
153.53270243202766
 10
95.81016977821908
 20
153.5422216275843
 10
95.67496020197463
 20
153.83218198232564
 10
95.67446123758951
 20
153.83404413859049
 10
95.65179595947265
 20
153.91863191859673
 10
95.59024747212727
 20
154.14833348592123
 10
95.58723983764648
 20
154.15955810546873
 10
95.58622690836587
 20
154.1711346944173
 10
95.55685195922851
 20
154.50685577392576
 10
95.58622690836587
 20
154.84257685343422
 10
95.58723983764648
 20
154.8541534423828
 10
95.63235435485839
 20
155.02252655029295
 10
95.67495994010005
 20
155.1815360054484
 10
95.81016977821908
 20
155.47148992026723
 10
95.81683507159472
 20
155.48100911582387
 10
96.01012857948861
 20
155.75706578696645
 10
96.2484285215052
 20
155.99536204144235
 10
96.25664576088509
 20
156.00357915366567
 10
96.26616482928516
 20
156.01024470135445
 10
96.54221781288705
 20
156.20354558432973
 10
96.5527498105677
 20
156.2084566255895
 10
96.83217375633079
 20
156.33875123523686
 10
96.8340367635091
 20
156.3392504374186
 10
97.15955810546875
 20
156.42647552490234
 10
97.17113456726074
 20
156.42748819986977
 10
97.50685195922851
 20
156.45685577392578
 10
97.84257303873697
 20
156.42748819986977
 10
97.85414962768554
 20
156.42647552490234
 10
98.17966728210449
 20
156.3392504374186
 10
98.18153001884865
 20
156.3387513020468
 10
98.46095410788931
 20
156.2084566255895
 10
98.47148610556997
 20
156.20354558432973
 10
98.74754277671255
 20
156.01024470135445
 10
98.75706197226918
 20
156.00357915366567
 10
98.76527908449249
 20
155.99536204144235
 10
98.8803186556188
 20
155.88032247031606
 10
98.9953582267451
 20
155.76528289918974
 10
99.0035753389684
 20
155.75706578696645
 10
99.1035566469518
 20
155.61427785361684
 10
99.2035379549352
 20
155.47148992026723
 10
99.33874779305424
 20
155.18153600544844
 10
99.33924649556478
 20
155.17967478434244
  0
LWPOLYLINE
  5
31
330
17
100
AcDbEntity
  8
0
100
AcDbPolyline
 90
79
 70
0
 10
10.704640247375982
 20
7.934723204325855
 10
10.696423135152676
 20
7.942940316549161
 10
10.596441827169278
 20
8.08572824989877
 10
10.496460519185879
 20
8.228516183248379
 10
10.361250681066851
 20
8.518470098067185
 10
10.360751978556314
 20
8.520331319173183
 10
10.344102478027343
 20
8.582469369682437
 10
10.276538213094076
 20
8.834627787272142
 10
10.273530578613281
 20
8.845852661132811
 10
10.272517776489257
 20
8.857429250081383
 10
10.243146514892578
 20
9.193150329589843
 10
10.272517776489257
 20
9.528871409098302
 10
10.273530578613281
 20
9.540447998046874
 10
10.318645095825195
 20
9.708817291259765
 10
10.361250942941433
 20
9.867824121189962
 10
10.496460519185879
 20
10.157784475931306
 10
10.503125939718108
 20
10.167303671487941
 10
10.688457965629915
 20
10.431984915384431
 10
10.689757714620454
 20
10.43384114707389
 10
10.696423135152676
 20
10.443360342630525
 10
10.704640247375982
 20
10.451577454853831
 10
10.819679818502285
 20
10.566617025980134
 10
10.934719389628588
 20
10.681656597106437
 10
10.942936501851895
 20
10.689873709329744
 10
10.952455697408537
 20
10.696539002705391
 10
11.228512368551113
 20
10.889832510599275
 10
11.239044366231779
 20
10.894743806172185
 10
11.518470551173523
 20
11.025046207166914
 10
11.5203311920166
 20
11.025544738769526
 10
11.845848846435546
 20
11.112762451171875
 10
12.181569925944013
 20
11.142137400309238
 10
12.193146514892577
 20
11.143150329589844
 10
12.204722976684574
 20
11.142137400309238
 10
12.540440368652343
 20
11.112762451171875
 10
12.865961710611979
 20
11.025544738769526
 10
12.867822621875368
 20
11.025046140359972
 10
13.147248663553375
 20
10.894743806172185
 10
13.15778066123404
 20
10.889832510599275
 10
13.433833644835934
 20
10.696539002705391
 10
13.443352713235994
 20
10.689873709329744
 10
13.451569952615875
 20
10.681656597106437
 10
13.689869894632478
 20
10.443360342630525
 10
13.883163402526362
 20
10.167303671487941
 10
13.88982869590201
 20
10.157784475931306
 10
14.025038272146453
 20
9.867824121189967
 10
14.025537236531576
 20
9.865961964925122
 10
14.048202514648438
 20
9.781374184918874
 10
14.109751001993814
 20
9.551672617594393
 10
14.11275863647461
 20
9.540447998046874
 10
14.113771565755208
 20
9.528871409098302
 10
14.143146514892578
 20
9.193150329589843
 10
14.113771565755208
 20
8.857429250081383
 10
14.11275863647461
 20
8.845852661132811
 10
14.067644119262695
 20
8.677479553222655
 10
14.025038534021041
 20
8.518470098067189
 10
13.88982869590201
 20
8.228516183248379
 10
13.883163402526355
 20
8.218996987691744
 10
13.689869894632478
 20
7.942940316549161
 10
13.451569952615875
 20
7.704644062073249
 10
13.443352713235994
 20
7.6964269498499425
 10
13.433833644835927
 20
7.689761402161145
 10
13.15778066123404
 20
7.49646051918588
 10
13.147248663553375
 20
7.49154947792612
 10
12.867824717790299
 20
7.361254868278758
 10
12.865961710611979
 20
7.3607556660970115
 10
12.540440368652343
 20
7.273530578613281
 10
12.528863906860346
 20
7.27251790364584
 10
12.193146514892577
 20
7.243150329589843
 10
11.85742543538411
 20
7.27251790364584
 10
11.845848846435546
 20
7.273530578613281
 10
11.5203311920166
 20
7.3607556660970115
 10
11.51846845527244
 20
7.361254801468818
 10
11.239044366231772
 20
7.49154947792612
 10
11.228512368551113
 20
7.49646051918588
 10
10.952455697408537
 20
7.689761402161145
 10
10.942936501851895
 20
7.6964269498499425
 10
10.934719389628588
 20
7.704644062073249
 10
10.819679818502285
 20
7.819683633199552
 10
10.704640247375982
 20
7.934723204325855
  0
ENDSEC
  0
SECTION
  2
OBJECTS
  0
DICTIONARY
  5
A
330
0
100
AcDbDictionary
281
1
  3
ACAD_COLOR
350
B
  3
ACAD_GROUP
350
C
  3
ACAD_LAYOUT
350
D
  3
ACAD_MATERIAL
350
E
  3
ACAD_MLEADERSTYLE
350
F
  3
ACAD_MLINESTYLE
350
10
  3
ACAD_PLOTSETTINGS
350
11
  3
ACAD_PLOTSTYLENAME
350
12
  3
ACAD_SCALELIST
350
14
  3
ACAD_TABLESTYLE
350
15
  3
ACAD_VISUALSTYLE
350
16
  0
DICTIONARY
  5
B
330
A
100
AcDbDictionary
281
1
  0
DICTIONARY
  5
C
330
A
100
AcDbDictionary
281
1
  0
DICTIONARY
  5
D
330
A
100
AcDbDictionary
281
1
  3
Model
350
1A
  3
Layout1
350
1E
  0
DICTIONARY
  5
E
330
A
100
AcDbDictionary
281
1
  3
ByBlock
350
1F
  3
ByLayer
350
20
  3
Global
350
21
  0
DICTIONARY
  5
F
330
A
100
AcDbDictionary
281
1
  3
Standard
350
2C
  0
DICTIONARY
  5
10
330
A
100
AcDbDictionary
281
1
  3
Standard
350
22
  0
DICTIONARY
  5
11
330
A
100
AcDbDictionary
281
1
  0
ACDBDICTIONARYWDFLT
  5
12
330
A
100
AcDbDictionary
281
1
  3
Normal
350
13
100
AcDbDictionaryWithDefault
340
13
  0
ACDBPLACEHOLDER
  5
13
330
12
  0
DICTIONARY
  5
14
330
A
100
AcDbDictionary
281
1
  0
DICTIONARY
  5
15
330
A
100
AcDbDictionary
281
1
  0
DICTIONARY
  5
16
330
A
100
AcDbDictionary
281
1
  0
LAYOUT
  5
1A
330
D
100
AcDbPlotSettings
  1

  2
Adobe PDF
  4
A4
  6

 40
3.175
 41
3.175
 42
3.175
 43
3.175
 44
209.91
 45
297.03
 46
0.0
 47
0.0
 48
0.0
 49
0.0
140
0.0
141
0.0
142
1.0
143
1.0
 70
1024
 72
0
 73
1
 74
5
  7

 75
16
 76
0
 77
2
 78
300
147
1.0
148
0.0
149
0.0
100
AcDbLayout
  1
Model
 70
1
 71
0
 10
-3.175
 20
-3.175
 11
293.857
 21
206.735
 12
0.0
 22
0.0
 32
0.0
 14
29.068
 24
20.356
 34
0.0
 15
261.614
 25
183.204
 35
0.0
146
0.0
 13
0.0
 23
0.0
 33
0.0
 16
1.0
 26
0.0
 36
0.0
 17
0.0
 27
1.0
 37
0.0
 76
1
330
17
  0
LAYOUT
  5
1E
330
D
100
AcDbPlotSettings
  1

  2
Adobe PDF
  4
A4
  6

 40
3.175
 41
3.175
 42
3.175
 43
3.175
 44
209.91
 45
297.03
 46
0.0
 47
0.0
 48
0.0
 49
0.0
140
0.0
141
0.0
142
1.0
143
1.0
 70
0
 72
0
 73
1
 74
5
  7

 75
16
 76
0
 77
2
 78
300
147
1.0
148
0.0
149
0.0
100
AcDbLayout
  1
Layout1
 70
1
 71
1
 10
-3.175
 20
-3.175
 11
293.857
 21
206.735
 12
0.0
 22
0.0
 32
0.0
 14
29.068
 24
20.356
 34
0.0
 15
261.614
 25
183.204
 35
0.0
146
0.0
 13
0.0
 23
0.0
 33
0.0
 16
1.0
 26
0.0
 36
0.0
 17
0.0
 27
1.0
 37
0.0
 76
1
330
1B
  0
MATERIAL
  5
1F
102
{ACAD_REACTORS
330
E
102
}
330
E
100
AcDbMaterial
  1
ByBlock
  2

 70
0
 40
1.0
 71
1
 41
1.0
 91
-1023410177
 42
1.0
 72
1
  3

 73
1
 74
1
 75
1
 44
0.5
 73
0
 45
1.0
 46
1.0
 77
1
  4

 78
1
 79
1
170
1
 48
1.0
171
1
  6

172
1
173
1
174
1
140
1.0
141
1.0
175
1
  7

176
1
177
1
178
1
143
1.0
179
1
  8

270
1
271
1
272
1
145
1.0
146
1.0
273
1
  9

274
1
275
1
276
1
 42
1.0
 72
1
  3

 73
1
 74
1
 75
1
 94
63
  0
MATERIAL
  5
20
102
{ACAD_REACTORS
330
E
102
}
330
E
100
AcDbMaterial
  1
ByLayer
  2

 70
0
 40
1.0
 71
1
 41
1.0
 91
-1023410177
 42
1.0
 72
1
  3

 73
1
 74
1
 75
1
 44
0.5
 73
0
 45
1.0
 46
1.0
 77
1
  4

 78
1
 79
1
170
1
 48
1.0
171
1
  6

172
1
173
1
174
1
140
1.0
141
1.0
175
1
  7

176
1
177
1
178
1
143
1.0
179
1
  8

270
1
271
1
272
1
145
1.0
146
1.0
273
1
  9

274
1
275
1
276
1
 42
1.0
 72
1
  3

 73
1
 74
1
 75
1
 94
63
  0
MATERIAL
  5
21
102
{ACAD_REACTORS
330
E
102
}
330
E
100
AcDbMaterial
  1
Global
  2

 70
0
 40
1.0
 71
1
 41
1.0
 91
-1023410177
 42
1.0
 72
1
  3

 73
1
 74
1
 75
1
 44
0.5
 73
0
 45
1.0
 46
1.0
 77
1
  4

 78
1
 79
1
170
1
 48
1.0
171
1
  6

172
1
173
1
174
1
140
1.0
141
1.0
175
1
  7

176
1
177
1
178
1
143
1.0
179
1
  8

270
1
271
1
272
1
145
1.0
146
1.0
273
1
  9

274
1
275
1
276
1
 42
1.0
 72
1
  3

 73
1
 74
1
 75
1
 94
63
  0
MLINESTYLE
  5
22
102
{ACAD_REACTORS
330
10
102
}
330
10
100
AcDbMlineStyle
  2
Standard
 70
0
  3

 62
256
 51
90.0
 52
90.0
 71
2
 49
0.5
 62
256
  6
BYLAYER
 49
-0.5
 62
256
  6
BYLAYER
  0
MLEADERSTYLE
  5
2C
102
{ACAD_REACTORS
330
F
102
}
330
F
100
AcDbMLeaderStyle
179
2
170
2
171
1
172
0
 90
2
 40
0.0
 41
0.0
173
1
 91
-1056964608
 92
-2
290
1
 42
2.0
291
1
 43
8.0
  3
Standard
 44
4.0
300

342
29
174
1
175
1
176
0
178
1
 93
-1056964608
 45
4.0
292
0
297
0
 46
4.0
 94
-1056964608
 47
1.0
 49
1.0
140
1.0
294
1
141
0.0
177
0
142
1.0
295
0
296
0
143
3.75
271
0
272
9
273
9
  0
ENDSEC
  0
EOF
